<?xml version="1.0" standalone="no"?>
<!DOCTYPE svg PUBLIC "-//W3C//DTD SVG 20010904//EN"
 "http://www.w3.org/TR/2001/REC-SVG-20010904/DTD/svg10.dtd">
<svg version="1.0" xmlns="http://www.w3.org/2000/svg"
 width="512.000000pt" height="512.000000pt" viewBox="0 0 512.000000 512.000000"
 preserveAspectRatio="xMidYMid meet">
<metadata>
Created by potrace 1.15, written by Peter Selinger 2001-2017
</metadata>
<g transform="translate(0.000000,512.000000) scale(0.100000,-0.100000)"
fill="#000000" stroke="none">
<path d="M259 4861 l-259 -259 0 -108 0 -108 76 74 c97 94 542 540 609 609
l49 51 -108 0 -108 0 -259 -259z"/>
<path d="M709 4411 l-709 -708 0 -109 0 -108 76 74 c102 100 1445 1443 1509
1509 l49 51 -108 0 -109 0 -708 -709z"/>
<path d="M2128 4931 l-191 -189 79 28 c43 15 104 33 135 40 55 12 56 13 68 59
29 109 127 207 241 242 16 5 -3 8 -58 8 l-82 1 -192 -189z"/>
<path d="M3070 4972 l-150 -147 89 -23 90 -23 118 119 c65 66 140 143 168 171
l49 51 -107 0 -107 0 -150 -148z"/>
<path d="M3808 4811 l-310 -309 41 -71 42 -71 327 329 c180 181 349 352 377
380 l49 51 -108 0 -107 0 -311 -309z"/>
<path d="M4329 4433 c-382 -382 -689 -696 -689 -705 0 -13 8 -18 25 -18 14 0
43 -9 65 -20 22 -11 44 -20 50 -20 6 0 310 300 676 666 l664 666 0 59 0 59
-51 0 -51 0 -689 -687z"/>
<path d="M762 3566 l-762 -763 0 -109 0 -108 76 74 c42 41 372 370 734 731
l657 656 12 79 c7 43 22 106 32 139 10 32 17 60 16 61 -1 2 -345 -341 -765
-760z"/>
<path d="M4209 3412 c-495 -494 -909 -908 -922 -920 l-23 -21 -27 23 c-26 22
-29 23 -79 10 -29 -8 -92 -14 -140 -14 -85 0 -88 -1 -88 -23 0 -13 -13 -44
-29 -69 -96 -152 -431 -188 -614 -67 -49 32 -97 100 -97 136 0 19 -8 21 -107
26 -60 3 -123 11 -141 17 -33 12 -35 12 -93 -46 -112 -111 -210 -284 -273
-483 -36 -114 -76 -298 -76 -349 0 -24 -121 -149 -750 -779 l-750 -751 0 -51
0 -51 59 0 59 0 676 675 c372 371 678 675 679 675 2 0 3 -24 2 -52 l0 -53 169
3 169 3 -6 -53 c-4 -29 -7 -101 -7 -159 l0 -107 -47 -12 c-45 -11 -78 -41
-495 -459 -247 -247 -448 -451 -448 -455 0 -3 47 -6 103 -6 l104 0 395 393
395 393 7 -77 c10 -116 42 -282 75 -389 l30 -95 -22 -23 c-12 -13 -59 -62
-104 -107 -46 -46 -83 -86 -83 -89 0 -3 343 -6 761 -6 l762 0 -7 42 c-4 24
-18 63 -32 87 l-24 44 24 51 c13 28 34 89 47 135 l24 85 928 929 927 929 0
104 c0 81 -3 104 -12 98 -7 -4 -331 -325 -720 -713 -700 -698 -708 -706 -708
-746 0 -77 -49 -125 -140 -140 -40 -7 -56 -19 -136 -99 l-91 -91 -1 261 -2
261 106 6 c59 4 133 7 166 7 66 0 61 -9 58 110 -3 117 -16 279 -26 312 -3 11
214 235 751 773 l755 757 0 104 c0 57 -3 104 -6 104 -4 0 -351 -344 -772 -765
-421 -421 -767 -763 -769 -761 -2 2 -6 15 -9 30 -10 57 -81 238 -127 321 -6
11 -20 37 -31 58 -11 20 -23 37 -28 37 -4 0 -8 4 -8 10 0 5 394 404 875 885
l875 877 0 104 c0 57 -3 104 -6 104 -4 0 -411 -404 -905 -898z"/>
<path d="M2012 3628 c-77 -83 -41 -258 53 -258 53 0 95 62 95 140 0 78 -42
140 -95 140 -20 0 -39 -8 -53 -22z"/>
<path d="M3002 3628 c-77 -83 -41 -258 53 -258 53 0 95 62 95 140 0 78 -42
140 -95 140 -20 0 -39 -8 -53 -22z"/>
<path d="M682 2586 l-682 -684 0 -108 0 -108 76 74 c42 41 378 375 745 742
620 618 669 670 669 701 0 33 -2 34 -60 50 -33 10 -61 17 -62 17 -2 0 -310
-308 -686 -684z"/>
<path d="M832 1835 l-832 -832 0 -109 0 -108 76 74 c42 41 445 442 894 891
l818 817 -62 49 -63 50 -831 -832z"/>
<path d="M4309 812 c-440 -440 -799 -802 -799 -805 0 -4 47 -7 104 -7 l105 0
700 701 701 700 0 105 c0 57 -3 104 -6 104 -4 0 -366 -359 -805 -798z"/>
<path d="M4759 362 c-192 -192 -349 -352 -349 -355 0 -4 46 -7 103 -7 l104 0
251 251 252 252 0 103 c0 57 -3 104 -6 104 -4 0 -163 -157 -355 -348z"/>
</g>
</svg>
