<?xml version="1.0" standalone="no"?>
<!DOCTYPE svg PUBLIC "-//W3C//DTD SVG 20010904//EN"
 "http://www.w3.org/TR/2001/REC-SVG-20010904/DTD/svg10.dtd">
<svg version="1.0" xmlns="http://www.w3.org/2000/svg"
 width="840.000000pt" height="880.000000pt" viewBox="0 0 840.000000 880.000000"
 preserveAspectRatio="xMidYMid meet">
<metadata>
Created by potrace 1.15, written by Peter Selinger 2001-2017
</metadata>
<g transform="translate(0.000000,880.000000) scale(0.100000,-0.100000)"
fill="#000000" stroke="none">
<path d="M3831 8389 c-47 -5 -86 -11 -89 -13 -5 -6 -72 -272 -118 -471 -20
-88 -41 -166 -47 -172 -5 -7 -23 -13 -40 -13 -40 0 -74 37 -211 228 -143 201
-223 302 -239 302 -15 0 -146 -44 -247 -83 -211 -81 -522 -225 -567 -263 l-23
-19 34 -205 c61 -367 67 -416 55 -444 -27 -60 -45 -52 -392 163 -125 77 -231
141 -234 141 -25 0 -432 -396 -565 -548 l-89 -104 19 -31 c10 -18 85 -139 165
-270 80 -131 149 -252 152 -269 6 -23 2 -35 -14 -51 l-20 -21 -303 49 c-167
27 -314 49 -328 49 -31 1 -63 -50 -160 -262 -122 -265 -210 -504 -210 -566 0
-28 10 -38 93 -95 234 -164 437 -322 437 -341 0 -51 -40 -66 -385 -149 -318
-77 -282 -60 -292 -139 -13 -107 -9 -782 5 -815 6 -15 24 -32 39 -38 16 -6
147 -42 293 -79 146 -37 277 -73 292 -78 27 -11 48 -39 48 -65 0 -13 -101 -92
-340 -265 -69 -49 -143 -105 -164 -124 l-39 -34 22 -75 c45 -145 186 -483 283
-672 43 -85 53 -98 72 -94 111 25 617 99 638 94 41 -11 45 -44 12 -108 -14
-30 -91 -159 -170 -287 -79 -129 -144 -235 -144 -238 0 -14 231 -263 361 -388
223 -216 265 -249 303 -242 17 4 144 74 281 156 138 82 262 152 277 155 38 10
68 -10 68 -44 0 -16 -22 -162 -49 -326 -27 -163 -47 -303 -44 -311 11 -28 258
-149 520 -253 134 -53 302 -111 322 -111 4 0 95 121 202 270 130 181 200 270
212 270 31 0 56 -19 71 -54 7 -18 44 -158 81 -312 37 -153 73 -285 80 -292 38
-41 861 -41 900 -1 18 18 54 142 110 374 62 259 73 285 124 285 23 0 52 -36
219 -270 107 -149 198 -270 202 -270 46 0 444 154 649 251 152 72 191 100 191
137 0 15 -20 152 -45 306 -49 301 -51 326 -33 344 28 28 70 9 309 -134 235
-141 297 -174 324 -174 42 0 497 444 621 606 l24 31 -141 229 c-186 301 -205
337 -193 372 7 20 17 28 40 30 17 2 146 -15 285 -37 378 -60 352 -58 379 -25
53 67 235 481 311 708 l34 99 -40 34 c-22 19 -87 69 -145 111 -385 279 -381
275 -342 320 21 25 64 38 322 102 233 57 299 77 318 95 24 23 35 216 28 530
-4 165 -9 317 -12 337 -7 44 1 41 -304 113 -253 60 -327 82 -351 106 -36 36
-24 60 59 120 42 30 164 118 270 194 105 76 192 144 192 151 0 18 -55 181 -97
289 -82 207 -213 488 -249 533 l-19 23 -275 -45 c-385 -63 -372 -62 -394 -38
-13 15 -16 29 -12 49 4 16 74 140 156 276 82 137 152 261 155 278 10 43 -19
81 -220 287 -149 153 -394 382 -409 382 -3 0 -108 -63 -233 -140 -340 -210
-383 -228 -400 -162 -3 15 11 135 35 282 59 361 58 356 36 382 -40 45 -505
253 -728 324 l-88 29 -35 -40 c-19 -22 -76 -96 -125 -165 -252 -348 -256 -352
-296 -331 -28 15 -43 59 -112 335 -72 291 -79 312 -117 327 -37 14 -681 21
-792 8z m625 -255 c11 -14 46 -150 125 -484 17 -74 36 -138 40 -141 5 -3 88
-20 185 -39 127 -24 181 -31 193 -23 9 5 67 77 128 159 202 267 257 335 279
340 23 6 217 -65 362 -132 97 -45 97 -44 93 -119 -2 -32 -65 -444 -85 -557 -5
-24 4 -32 117 -106 67 -43 143 -91 169 -107 l48 -27 197 120 c109 66 233 141
275 167 l77 48 38 -29 c58 -44 323 -315 323 -331 0 -23 -45 -105 -171 -310
-168 -274 -156 -243 -118 -311 59 -105 127 -207 162 -240 l34 -33 174 26 c96
14 210 32 254 39 135 24 182 28 203 17 26 -14 192 -398 192 -444 0 -21 -66
-78 -260 -222 -212 -157 -250 -191 -250 -219 0 -20 56 -315 66 -347 3 -10 20
-20 42 -24 116 -20 575 -139 587 -152 11 -10 15 -40 17 -106 2 -129 -3 -369
-8 -389 -5 -18 -45 -30 -394 -114 -129 -31 -237 -58 -239 -60 -7 -7 -71 -327
-71 -356 0 -33 65 -87 338 -283 99 -71 181 -135 181 -142 2 -35 -178 -449
-202 -465 -10 -6 -25 -5 -147 13 -62 9 -400 63 -467 74 -33 6 -34 4 -108 -109
-41 -64 -89 -140 -106 -171 l-31 -55 58 -98 c32 -53 106 -175 166 -270 59 -96
108 -178 108 -183 0 -12 -273 -292 -323 -331 l-39 -31 -46 22 c-26 13 -142 81
-258 152 -116 71 -225 134 -243 140 -30 11 -37 8 -129 -52 -153 -100 -201
-138 -207 -162 -4 -13 14 -152 39 -309 25 -157 46 -295 46 -307 0 -15 -15 -28
-58 -50 -83 -42 -256 -114 -335 -141 l-69 -22 -30 28 c-16 16 -89 108 -161
204 -192 257 -212 280 -250 280 -18 -1 -104 -16 -192 -33 l-159 -33 -77 -313
c-44 -181 -82 -317 -90 -322 -8 -5 -123 -8 -257 -7 -193 2 -244 6 -251 17 -7
11 -42 148 -140 556 l-17 69 -160 33 c-87 17 -173 32 -190 33 -39 0 -57 -19
-242 -265 -82 -110 -161 -211 -176 -224 l-26 -24 -117 43 c-155 56 -319 128
-334 146 -14 17 -11 41 46 398 32 198 36 231 24 253 -13 25 -193 150 -276 193
l-43 22 -57 -32 c-32 -18 -151 -91 -264 -161 -114 -71 -214 -132 -223 -135
-11 -4 -66 43 -186 161 -93 93 -172 176 -175 186 -8 24 12 62 177 337 l140
233 -31 55 c-18 30 -65 107 -106 170 -71 109 -77 115 -103 110 -35 -8 -512
-82 -574 -90 l-48 -6 -44 88 c-49 98 -156 363 -155 384 0 7 82 72 181 143 273
196 338 250 338 283 -1 30 -64 349 -71 356 -3 3 -126 34 -274 69 -369 89 -354
84 -359 110 -20 100 -12 469 10 492 12 11 369 103 566 146 31 6 59 17 61 23 2
6 19 89 37 184 24 126 31 178 23 190 -15 25 -105 96 -316 249 -104 76 -192
143 -194 150 -6 15 95 269 153 386 30 59 50 87 62 87 9 0 58 -6 107 -14 50 -8
184 -28 298 -46 l209 -32 25 24 c34 32 101 127 157 225 43 72 46 84 35 105 -7
12 -82 137 -167 276 l-154 253 28 37 c41 55 316 322 331 322 22 0 84 -34 331
-182 l233 -140 57 33 c86 48 224 143 251 173 l24 26 -41 267 c-23 148 -44 289
-48 316 l-6 47 123 59 c152 72 301 132 336 134 23 2 44 -22 177 -204 185 -254
231 -309 257 -309 19 0 317 56 350 66 10 3 22 31 33 82 57 245 128 529 136
542 13 21 127 29 335 24 138 -3 172 -7 181 -20z"/>
<path d="M4077 6889 c-3 -13 -3 -69 -1 -124 2 -55 4 -103 4 -107 0 -5 54 -8
119 -8 99 0 120 3 125 16 9 23 7 222 -1 227 -5 3 -60 8 -124 12 l-116 7 -6
-23z"/>
<path d="M3072 6528 l3 -123 123 -3 122 -3 0 126 0 125 -125 0 -126 0 3 -122z"/>
<path d="M5080 6525 l0 -126 123 3 122 3 3 123 3 122 -126 0 -125 0 0 -125z"/>
<path d="M2320 6025 l0 -125 125 0 125 0 0 125 0 125 -125 0 -125 0 0 -125z"/>
<path d="M5830 6025 l0 -126 123 3 122 3 3 123 3 122 -126 0 -125 0 0 -125z"/>
<path d="M4034 5948 c-209 -106 -597 -316 -903 -488 -340 -190 -409 -231 -418
-249 -10 -21 -16 -1490 -6 -1566 8 -59 9 -61 63 -96 102 -68 847 -477 1241
-683 91 -47 176 -86 189 -86 53 0 1424 744 1475 800 20 22 20 41 20 809 0 432
-3 798 -7 812 -6 18 -35 41 -110 86 -267 158 -1233 679 -1349 727 l-37 15
-158 -81z m635 -442 c494 -270 559 -306 598 -340 l27 -23 -70 -40 c-156 -90
-1013 -553 -1024 -553 -23 0 -1100 589 -1100 602 0 20 1066 597 1104 598 11 0
220 -110 465 -244z m-1159 -868 c157 -86 347 -188 422 -229 l137 -74 0 -590
c0 -324 -3 -597 -7 -606 -7 -17 -107 34 -827 426 l-280 152 -3 574 c-1 316 0
589 3 607 l6 33 132 -69 c73 -38 260 -139 417 -224z m1938 -344 l-3 -577 -455
-246 c-250 -136 -498 -270 -551 -298 l-97 -52 -6 31 c-3 17 -6 290 -6 607 l1
576 341 185 c516 280 606 328 688 371 l75 39 8 -29 c4 -16 6 -289 5 -607z"/>
<path d="M1820 5275 l0 -125 125 0 125 0 0 125 0 125 -125 0 -125 0 0 -125z"/>
<path d="M6330 5275 l0 -125 125 0 125 0 0 125 0 125 -125 0 -125 0 0 -125z"/>
<path d="M1700 4405 l0 -125 125 0 126 0 -3 123 -3 122 -122 3 -123 3 0 -126z"/>
<path d="M6457 4523 c-4 -3 -7 -60 -7 -125 l0 -118 125 0 125 0 0 125 0 125
-118 0 c-65 0 -122 -3 -125 -7z"/>
<path d="M1820 3525 l0 -125 125 0 125 0 0 125 0 125 -125 0 -125 0 0 -125z"/>
<path d="M6330 3525 l0 -125 125 0 125 0 0 125 0 125 -125 0 -125 0 0 -125z"/>
<path d="M2320 2775 l0 -125 125 0 125 0 0 125 0 125 -125 0 -125 0 0 -125z"/>
<path d="M5830 2775 l0 -125 125 0 125 0 0 125 0 125 -125 0 -125 0 0 -125z"/>
<path d="M3070 2275 l0 -125 125 0 125 0 0 125 0 125 -125 0 -125 0 0 -125z"/>
<path d="M5080 2275 l0 -125 125 0 125 0 0 125 0 125 -125 0 -125 0 0 -125z"/>
<path d="M4075 2129 c-4 -11 -4 -68 0 -125 l7 -105 122 3 121 3 3 100 c4 155
13 145 -128 145 -111 0 -119 -1 -125 -21z"/>
</g>
</svg>
