<svg height="512" viewBox="0 0 43 56" width="512" xmlns="http://www.w3.org/2000/svg"><g id="Page-1" fill="none" fill-rule="evenodd"><g id="047---Wrench" fill="rgb(0,0,0)" fill-rule="nonzero"><path id="Shape" d="m21.899 17.308-.776 3.499 4.276-2.723z"/><path id="Shape" d="m24.393 10.689 2.369-10.668c-3.468409-.25394536-6.5999496 2.06982624-7.362 5.463l-1.08 4.881 6.036 1.34c-.0464563-.3382609-.0339377-.6820142.037-1.016z"/><path id="Shape" d="m38.477 2.622-2.369 10.669c-.3646544 1.6140483-1.9634458 2.6313799-3.58 2.278l-5.857-1.3h-.009l-8.719-1.936c-.379 2.247-.572 4.43-.742 6.407-.3 3.45-.552 6.429-1.672 8.671-.991 1.983-6.608 10.246-11.122 16.886-1.182 1.739-2.247 3.303-3.057 4.503-.69639819 1.0323722-.94582317 2.3024455-.69157648 3.5215113.25424668 1.2190658.99056462 2.283554 2.04157648 2.9514887l.032.022c1.064346.6655983 2.35364267.8696415 3.57150278.5652236 1.21786011-.3044178 2.25951181-1.0911079 2.88549722-2.1792236 2.633-4.57 13.418-21.957 16.365-23.1 6.8-2.633 14.342-6.679 15.109-10.134l2.168-9.762c.749337-3.39555728-1.1037476-6.82721109-4.354-8.063zm-8.767 16.418-.867 3.905c-.1134916.5188806-.4293111.971038-.8774195 1.2561979-.4481085.2851599-.9914687.3797532-1.5095805.2628021l-5.856-1.3c-.51827-.1149376-.9695822-.4312074-1.254504-.8791293-.2849219-.4479219-.3800752-.9907434-.264496-1.5088707l.866-3.9c.1151734-.517871.4313865-.9687637.8790537-1.2534553.4476673-.2846917.9901054-.3798536 1.5079463-.2645447l5.856 1.3c1.0747967.2419043 1.7533833 1.305321 1.52 2.382z"/><path id="Shape" d="m26.89 22.512.777-3.5-4.276 2.723z"/></g></g></svg>